# xmcd CD database file
#
# Track frame offsets:
#	150
#	15336
#	30837
#	44918
#	77877
#	97705
#	115586
#	134429
#	149415
#	165833
#	177772
#	190182
#
# Disc length: 2807 seconds
#
# Revision: 0
# Processed by: cddbd v1.5.1PL0 Copyright (c) Steve Scherf et al.
# Submitted via: CDex 1.51
#
DISCID=8a0af50c
DTITLE=Pinettes Brass Band - Who You Gonna Call?
DYEAR=2002
DGENRE=Jazz
TTITLE0=Who You Gonna Call?
TTITLE1=Tornado
TTITLE2=Tutti Flui [live]
TTITLE3=Camelia
TTITLE4=Right Foot
TTITLE5=Do What You Wanna
TTITLE6=Lord, Lord, Lord
TTITLE7=Tutti Flui
TTITLE8=All Day, All Night
TTITLE9=Pinettes
TTITLE10=Ms. Magic
TTITLE11=It Ain't My Fault [feat. Big Chief Bo Dollis and Marva Wright]
EXTD=YEAR: 2002
EXTT0=
EXTT1=
EXTT2=
EXTT3=
EXTT4=
EXTT5=
EXTT6=
EXTT7=
EXTT8=
EXTT9=
EXTT10=
EXTT11=
PLAYORDER=
